<mxfile host="app.diagrams.net" agent="Mozilla/5.0 (Windows NT 10.0; Win64; x64) AppleWebKit/537.36 (KHTML, like Gecko) Chrome/137.0.0.0 Safari/537.36" version="26.1.1">
  <diagram id="YOUR_DIAGRAM_ID_HERE" name="Page-1">
    <mxGraphModel dx="4435" dy="2945" grid="1" gridSize="10" guides="1" tooltips="1" connect="1" arrows="1" fold="1" page="1" pageScale="1" pageWidth="850" pageHeight="1100" math="0" shadow="0">
      <root>
        <mxCell id="0" />
        <mxCell id="1" parent="0" />
        <mxCell id="GitFlow" value="GitFlow" style="swimlane;fontStyle=1;align=center;verticalAlign=top;fontSize=21;fillColor=#add8e6;" parent="1" vertex="1">
          <mxGeometry x="100" y="80" width="1050" height="2350" as="geometry" />
        </mxCell>
        <mxCell id="RepositoryManagement" value="Repository Management" style="swimlane;fontStyle=1;align=center;verticalAlign=top;fontSize=21;fillColor=#90ee90;" parent="GitFlow" vertex="1">
          <mxGeometry x="20" y="50" width="320" height="2250" as="geometry" />
        </mxCell>
        <mxCell id="Status" value="Status" style="ellipse;whiteSpace=wrap;html=1;fontSize=18;fillColor=#008000;fontColor=#FFFFFF;" parent="RepositoryManagement" vertex="1">
          <mxGeometry x="85" y="70" width="150" height="60" as="geometry" />
        </mxCell>
        <mxCell id="note_Status" value="Shows workspace state." style="note;whiteSpace=wrap;html=1;backgroundOutline=1;fontSize=18;fillColor=none;fontColor=black;" parent="RepositoryManagement" vertex="1">
          <mxGeometry x="85" y="140" width="150" height="40" as="geometry" />
        </mxCell>
        <mxCell id="MergeBranches" value="Merge Branches" style="ellipse;whiteSpace=wrap;html=1;fontSize=18;fillColor=#008000;fontColor=#FFFFFF;" parent="RepositoryManagement" vertex="1">
          <mxGeometry x="85" y="220" width="150" height="60" as="geometry" />
        </mxCell>
        <mxCell id="note_MergeBranches" value="Combines branches." style="note;whiteSpace=wrap;html=1;backgroundOutline=1;fontSize=18;fillColor=none;fontColor=black;" parent="RepositoryManagement" vertex="1">
          <mxGeometry x="85" y="290" width="150" height="40" as="geometry" />
        </mxCell>
        <mxCell id="ListBranches" value="List Branches" style="ellipse;whiteSpace=wrap;html=1;fontSize=18;fillColor=#008000;fontColor=#FFFFFF;" parent="RepositoryManagement" vertex="1">
          <mxGeometry x="85" y="380" width="150" height="60" as="geometry" />
        </mxCell>
        <mxCell id="note_ListBranches" value="Lists all branches." style="note;whiteSpace=wrap;html=1;backgroundOutline=1;fontSize=18;fillColor=none;fontColor=black;" parent="RepositoryManagement" vertex="1">
          <mxGeometry x="85" y="450" width="150" height="40" as="geometry" />
        </mxCell>
        <mxCell id="StartRepository" value="Start Repository" style="ellipse;whiteSpace=wrap;html=1;fontSize=18;fillColor=#008000;fontColor=#FFFFFF;" parent="RepositoryManagement" vertex="1">
          <mxGeometry x="85" y="540" width="150" height="60" as="geometry" />
        </mxCell>
        <mxCell id="note_StartRepository" value="Initializes a Git repo." style="note;whiteSpace=wrap;html=1;backgroundOutline=1;fontSize=18;fillColor=none;fontColor=black;" parent="RepositoryManagement" vertex="1">
          <mxGeometry x="85" y="610" width="150" height="40" as="geometry" />
        </mxCell>
        <mxCell id="CloneRepository" value="Clone Repository" style="ellipse;whiteSpace=wrap;html=1;fontSize=18;fillColor=#008000;fontColor=#FFFFFF;" parent="RepositoryManagement" vertex="1">
          <mxGeometry x="85" y="700" width="150" height="60" as="geometry" />
        </mxCell>
        <mxCell id="note_CloneRepository" value="Copies a repository." style="note;whiteSpace=wrap;html=1;backgroundOutline=1;fontSize=18;fillColor=none;fontColor=black;" parent="RepositoryManagement" vertex="1">
          <mxGeometry x="85" y="770" width="150" height="40" as="geometry" />
        </mxCell>
        <mxCell id="LinkRemote" value="Link Remote" style="ellipse;whiteSpace=wrap;html=1;fontSize=18;fillColor=#008000;fontColor=#FFFFFF;" parent="RepositoryManagement" vertex="1">
          <mxGeometry x="85" y="860" width="150" height="60" as="geometry" />
        </mxCell>
        <mxCell id="note_LinkRemote" value="Connects to remote." style="note;whiteSpace=wrap;html=1;backgroundOutline=1;fontSize=18;fillColor=none;fontColor=black;" parent="RepositoryManagement" vertex="1">
          <mxGeometry x="85" y="930" width="150" height="40" as="geometry" />
        </mxCell>
        <mxCell id="SyncChanges" value="Sync Changes" style="ellipse;whiteSpace=wrap;html=1;fontSize=18;fillColor=#008000;fontColor=#FFFFFF;" parent="RepositoryManagement" vertex="1">
          <mxGeometry x="85" y="1020" width="150" height="60" as="geometry" />
        </mxCell>
        <mxCell id="note_SyncChanges" value="Pushes &amp;amp; pulls commits." style="note;whiteSpace=wrap;html=1;backgroundOutline=1;fontSize=18;fillColor=none;fontColor=black;" parent="RepositoryManagement" vertex="1">
          <mxGeometry x="85" y="1090" width="150" height="40" as="geometry" />
        </mxCell>
        <mxCell id="CreateBranch" value="Create Branch" style="ellipse;whiteSpace=wrap;html=1;fontSize=18;fillColor=#008000;fontColor=#FFFFFF;" parent="RepositoryManagement" vertex="1">
          <mxGeometry x="85" y="1180" width="150" height="60" as="geometry" />
        </mxCell>
        <mxCell id="note_CreateBranch" value="Creates a new branch." style="note;whiteSpace=wrap;html=1;backgroundOutline=1;fontSize=18;fillColor=none;fontColor=black;" parent="RepositoryManagement" vertex="1">
          <mxGeometry x="85" y="1250" width="150" height="40" as="geometry" />
        </mxCell>
        <mxCell id="SwitchBranch" value="Switch Branch" style="ellipse;whiteSpace=wrap;html=1;fontSize=18;fillColor=#008000;fontColor=#FFFFFF;" parent="RepositoryManagement" vertex="1">
          <mxGeometry x="85" y="1340" width="150" height="60" as="geometry" />
        </mxCell>
        <mxCell id="note_SwitchBranch" value="Changes branch." style="note;whiteSpace=wrap;html=1;backgroundOutline=1;fontSize=18;fillColor=none;fontColor=black;" parent="RepositoryManagement" vertex="1">
          <mxGeometry x="85" y="1410" width="150" height="40" as="geometry" />
        </mxCell>
        <mxCell id="DeleteBranch" value="Delete Branch" style="ellipse;whiteSpace=wrap;html=1;fontSize=18;fillColor=#008000;fontColor=#FFFFFF;" parent="RepositoryManagement" vertex="1">
          <mxGeometry x="85" y="1500" width="150" height="60" as="geometry" />
        </mxCell>
        <mxCell id="note_DeleteBranch" value="Removes a branch." style="note;whiteSpace=wrap;html=1;backgroundOutline=1;fontSize=18;fillColor=none;fontColor=black;" parent="RepositoryManagement" vertex="1">
          <mxGeometry x="85" y="1570" width="150" height="40" as="geometry" />
        </mxCell>
        <mxCell id="ResetChanges" value="Reset Changes" style="ellipse;whiteSpace=wrap;html=1;fontSize=18;fillColor=#008000;fontColor=#FFFFFF;" parent="RepositoryManagement" vertex="1">
          <mxGeometry x="85" y="1660" width="150" height="60" as="geometry" />
        </mxCell>
        <mxCell id="note_ResetChanges" value="Reverts files." style="note;whiteSpace=wrap;html=1;backgroundOutline=1;fontSize=18;fillColor=none;fontColor=black;" parent="RepositoryManagement" vertex="1">
          <mxGeometry x="85" y="1730" width="150" height="40" as="geometry" />
        </mxCell>
        <mxCell id="ForkRepository" value="Fork Repository" style="ellipse;whiteSpace=wrap;html=1;fontSize=18;fillColor=#008000;fontColor=#FFFFFF;" parent="RepositoryManagement" vertex="1">
          <mxGeometry x="85" y="1820" width="150" height="60" as="geometry" />
        </mxCell>
        <mxCell id="note_ForkRepository" value="Duplicates repo." style="note;whiteSpace=wrap;html=1;backgroundOutline=1;fontSize=18;fillColor=none;fontColor=black;" parent="RepositoryManagement" vertex="1">
          <mxGeometry x="85" y="1890" width="150" height="40" as="geometry" />
        </mxCell>
        <mxCell id="UnlinkRemote" value="Unlink Remote" style="ellipse;whiteSpace=wrap;html=1;fontSize=18;fillColor=#008000;fontColor=#FFFFFF;" parent="RepositoryManagement" vertex="1">
          <mxGeometry x="85" y="1980" width="150" height="60" as="geometry" />
        </mxCell>
        <mxCell id="note_UnlinkRemote" value="Disconnects from remote." style="note;whiteSpace=wrap;html=1;backgroundOutline=1;fontSize=18;fillColor=none;fontColor=black;" parent="RepositoryManagement" vertex="1">
          <mxGeometry x="85" y="2050" width="150" height="40" as="geometry" />
        </mxCell>
        <mxCell id="RevertCommit" value="Revert Commit" style="ellipse;whiteSpace=wrap;html=1;fontSize=18;fillColor=#008000;fontColor=#FFFFFF;" parent="RepositoryManagement" vertex="1">
          <mxGeometry x="85" y="2140" width="150" height="60" as="geometry" />
        </mxCell>
        <mxCell id="note_RevertCommit" value="Undoes commit via hash." style="note;whiteSpace=wrap;html=1;backgroundOutline=1;fontSize=18;fillColor=none;fontColor=black;" parent="RepositoryManagement" vertex="1">
          <mxGeometry x="85" y="2210" width="150" height="40" as="geometry" />
        </mxCell>
        <mxCell id="SettingsMaintenance" value="Settings &amp; Maintenance" style="swimlane;fontStyle=1;align=center;verticalAlign=top;fontSize=21;fillColor=#d3d3d3;" parent="GitFlow" vertex="1">
          <mxGeometry x="360" y="50" width="320" height="840" as="geometry" />
        </mxCell>
        <mxCell id="-dVArI_vn6dUN9_EXdXl-10" style="edgeStyle=orthogonalEdgeStyle;rounded=0;orthogonalLoop=1;jettySize=auto;html=1;exitX=1;exitY=1;exitDx=0;exitDy=0;entryX=1;entryY=0.5;entryDx=0;entryDy=0;fontSize=18;" edge="1" parent="SettingsMaintenance" source="ConfigureSettings" target="ToggleTerminalMode">
          <mxGeometry relative="1" as="geometry">
            <mxPoint x="260" y="500" as="targetPoint" />
            <Array as="points">
              <mxPoint x="300" y="121" />
              <mxPoint x="300" y="490" />
            </Array>
          </mxGeometry>
        </mxCell>
        <mxCell id="-dVArI_vn6dUN9_EXdXl-11" style="edgeStyle=orthogonalEdgeStyle;rounded=0;orthogonalLoop=1;jettySize=auto;html=1;exitX=1;exitY=0.5;exitDx=0;exitDy=0;entryX=1;entryY=0.5;entryDx=0;entryDy=0;fontSize=18;" edge="1" parent="SettingsMaintenance" source="ConfigureSettings" target="ToggleColorMode">
          <mxGeometry relative="1" as="geometry">
            <Array as="points">
              <mxPoint x="320" y="100" />
              <mxPoint x="320" y="620" />
            </Array>
          </mxGeometry>
        </mxCell>
        <mxCell id="-dVArI_vn6dUN9_EXdXl-12" style="edgeStyle=orthogonalEdgeStyle;rounded=0;orthogonalLoop=1;jettySize=auto;html=1;exitX=1;exitY=0.5;exitDx=0;exitDy=0;entryX=1;entryY=0.5;entryDx=0;entryDy=0;fontSize=18;" edge="1" parent="SettingsMaintenance" target="SetDefaultCommitMessage">
          <mxGeometry relative="1" as="geometry">
            <mxPoint x="290" y="100" as="sourcePoint" />
            <mxPoint x="290" y="750" as="targetPoint" />
            <Array as="points">
              <mxPoint x="290" y="750" />
            </Array>
          </mxGeometry>
        </mxCell>
        <mxCell id="ConfigureSettings" value="Configure Settings" style="ellipse;whiteSpace=wrap;html=1;fontSize=18;fillColor=#808080;fontColor=#FFFFFF;" parent="SettingsMaintenance" vertex="1">
          <mxGeometry x="85" y="70" width="150" height="60" as="geometry" />
        </mxCell>
        <mxCell id="note_ConfigureSettings" value="Adjust tool settings." style="note;whiteSpace=wrap;html=1;backgroundOutline=1;fontSize=18;fillColor=none;fontColor=black;" parent="SettingsMaintenance" vertex="1">
          <mxGeometry x="85" y="140" width="150" height="40" as="geometry" />
        </mxCell>
        <mxCell id="ViewHistory" value="View History" style="ellipse;whiteSpace=wrap;html=1;fontSize=18;fillColor=#808080;fontColor=#FFFFFF;" parent="SettingsMaintenance" vertex="1">
          <mxGeometry x="85" y="200" width="150" height="60" as="geometry" />
        </mxCell>
        <mxCell id="note_ViewHistory" value="Shows commit history." style="note;whiteSpace=wrap;html=1;backgroundOutline=1;fontSize=18;fillColor=none;fontColor=black;" parent="SettingsMaintenance" vertex="1">
          <mxGeometry x="85" y="270" width="150" height="40" as="geometry" />
        </mxCell>
        <mxCell id="ToggleGUIMode" value="Toggle GUI Mode" style="ellipse;whiteSpace=wrap;html=1;fontSize=18;fillColor=#808080;fontColor=#FFFFFF;" parent="SettingsMaintenance" vertex="1">
          <mxGeometry x="85" y="330" width="150" height="60" as="geometry" />
        </mxCell>
        <mxCell id="note_ToggleGUIMode" value="Enables GUI." style="note;whiteSpace=wrap;html=1;backgroundOutline=1;fontSize=18;fillColor=none;fontColor=black;" parent="SettingsMaintenance" vertex="1">
          <mxGeometry x="85" y="400" width="150" height="40" as="geometry" />
        </mxCell>
        <mxCell id="ToggleTerminalMode" value="Toggle Terminal Mode" style="ellipse;whiteSpace=wrap;html=1;fontSize=18;fillColor=#808080;fontColor=#FFFFFF;" parent="SettingsMaintenance" vertex="1">
          <mxGeometry x="85" y="460" width="150" height="60" as="geometry" />
        </mxCell>
        <mxCell id="note_ToggleTerminalMode" value="Enables CLI." style="note;whiteSpace=wrap;html=1;backgroundOutline=1;fontSize=18;fillColor=none;fontColor=black;" parent="SettingsMaintenance" vertex="1">
          <mxGeometry x="85" y="530" width="150" height="40" as="geometry" />
        </mxCell>
        <mxCell id="ToggleColorMode" value="Toggle Color Mode" style="ellipse;whiteSpace=wrap;html=1;fontSize=18;fillColor=#808080;fontColor=#FFFFFF;" parent="SettingsMaintenance" vertex="1">
          <mxGeometry x="85" y="590" width="150" height="60" as="geometry" />
        </mxCell>
        <mxCell id="note_ToggleColorMode" value="Adjusts colors." style="note;whiteSpace=wrap;html=1;backgroundOutline=1;fontSize=18;fillColor=none;fontColor=black;" parent="SettingsMaintenance" vertex="1">
          <mxGeometry x="85" y="660" width="150" height="40" as="geometry" />
        </mxCell>
        <mxCell id="SetDefaultCommitMessage" value="Set Default Commit Message" style="ellipse;whiteSpace=wrap;html=1;fontSize=18;fillColor=#808080;fontColor=#FFFFFF;" parent="SettingsMaintenance" vertex="1">
          <mxGeometry x="85" y="720" width="150" height="60" as="geometry" />
        </mxCell>
        <mxCell id="note_SetDefaultCommitMessage" value="Defines commit text." style="note;whiteSpace=wrap;html=1;backgroundOutline=1;fontSize=18;fillColor=none;fontColor=black;" parent="SettingsMaintenance" vertex="1">
          <mxGeometry x="85" y="790" width="150" height="40" as="geometry" />
        </mxCell>
        <mxCell id="Support" value="Support" style="swimlane;fontStyle=1;align=center;verticalAlign=top;fontSize=21;fillColor=#ffa500;" parent="GitFlow" vertex="1">
          <mxGeometry x="700" y="50" width="320" height="690" as="geometry" />
        </mxCell>
        <mxCell id="Help" value="Help" style="ellipse;whiteSpace=wrap;html=1;fontSize=18;fillColor=#ffa500;fontColor=#FFFFFF;" parent="Support" vertex="1">
          <mxGeometry x="85" y="70" width="150" height="60" as="geometry" />
        </mxCell>
        <mxCell id="note_Help" value="Provides docs &amp;amp; guidance." style="note;whiteSpace=wrap;html=1;backgroundOutline=1;fontSize=18;fillColor=none;fontColor=black;" parent="Support" vertex="1">
          <mxGeometry x="85" y="140" width="150" height="40" as="geometry" />
        </mxCell>
        <mxCell id="Exit" value="Exit" style="ellipse;whiteSpace=wrap;html=1;fontSize=18;fillColor=#ffa500;fontColor=#FFFFFF;" parent="Support" vertex="1">
          <mxGeometry x="85" y="200" width="150" height="60" as="geometry" />
        </mxCell>
        <mxCell id="note_Exit" value="Closes the tool." style="note;whiteSpace=wrap;html=1;backgroundOutline=1;fontSize=18;fillColor=none;fontColor=black;" parent="Support" vertex="1">
          <mxGeometry x="85" y="270" width="150" height="40" as="geometry" />
        </mxCell>
        <mxCell id="AIIntegration" value="AI Integration" style="swimlane;fontStyle=1;align=center;verticalAlign=top;fontSize=18;fillColor=#ff0000;" parent="Support" vertex="1">
          <mxGeometry x="20" y="340" width="280" height="300" as="geometry" />
        </mxCell>
        <mxCell id="SyncChangeswithAI" value="Sync Changes with AI" style="ellipse;whiteSpace=wrap;html=1;fontSize=18;fillColor=#ff0000;fontColor=#FFFFFF;" parent="AIIntegration" vertex="1">
          <mxGeometry x="65" y="50" width="150" height="60" as="geometry" />
        </mxCell>
        <mxCell id="note_SyncChangeswithAI" value="AI-generated commits." style="note;whiteSpace=wrap;html=1;backgroundOutline=1;fontSize=18;fillColor=none;fontColor=black;" parent="AIIntegration" vertex="1">
          <mxGeometry x="65" y="120" width="150" height="40" as="geometry" />
        </mxCell>
        <mxCell id="AIAssistant" value="AI Assistant" style="ellipse;whiteSpace=wrap;html=1;fontSize=18;fillColor=#ff0000;fontColor=#FFFFFF;" parent="AIIntegration" vertex="1">
          <mxGeometry x="65" y="180" width="150" height="60" as="geometry" />
        </mxCell>
        <mxCell id="note_AIAssistant" value="AI-powered support." style="note;whiteSpace=wrap;html=1;backgroundOutline=1;fontSize=18;fillColor=none;fontColor=black;" parent="AIIntegration" vertex="1">
          <mxGeometry x="65" y="250" width="150" height="40" as="geometry" />
        </mxCell>
        <mxCell id="-dVArI_vn6dUN9_EXdXl-13" style="edgeStyle=orthogonalEdgeStyle;rounded=0;orthogonalLoop=1;jettySize=auto;html=1;exitX=1;exitY=0.5;exitDx=0;exitDy=0;entryX=1;entryY=0.5;entryDx=0;entryDy=0;fontSize=18;" edge="1" parent="GitFlow" source="SyncChangeswithAI" target="SyncChanges">
          <mxGeometry relative="1" as="geometry">
            <mxPoint x="580" y="1070" as="targetPoint" />
            <Array as="points">
              <mxPoint x="1120" y="470" />
              <mxPoint x="1120" y="1100" />
            </Array>
          </mxGeometry>
        </mxCell>
        <mxCell id="User" value="" style="shape=umlActor;verticalLabelPosition=bottom;verticalAlign=top;html=1;fontSize=18;fontColor=black;" parent="1" vertex="1">
          <mxGeometry x="-350" y="790" width="60" height="100" as="geometry" />
        </mxCell>
        <mxCell id="edge_User_ConfigureSettings" value="" style="endArrow=classic;html=1;fontSize=18;strokeColor=#000000;" parent="1" source="User" target="ConfigureSettings" edge="1">
          <mxGeometry width="100" height="100" relative="1" as="geometry">
            <mxPoint x="80" y="1230" as="sourcePoint" />
            <mxPoint x="520" y="150" as="targetPoint" />
            <Array as="points">
              <mxPoint x="-330" y="20" />
              <mxPoint x="630" y="10" />
            </Array>
          </mxGeometry>
        </mxCell>
        <mxCell id="edge_User_RevertCommit" value="" style="endArrow=classic;html=1;fontSize=18;strokeColor=#000000;" parent="1" source="User" target="RevertCommit" edge="1">
          <mxGeometry width="100" height="100" relative="1" as="geometry">
            <mxPoint x="80" y="1230" as="sourcePoint" />
            <mxPoint x="180" y="2220" as="targetPoint" />
            <Array as="points">
              <mxPoint x="-720" y="1510" />
            </Array>
          </mxGeometry>
        </mxCell>
        <mxCell id="edge_User_Status" value="" style="endArrow=classic;html=1;fontSize=18;strokeColor=#000000;" parent="1" source="User" target="Status" edge="1">
          <mxGeometry width="100" height="100" relative="1" as="geometry">
            <mxPoint x="80" y="1230" as="sourcePoint" />
            <mxPoint x="180" y="150" as="targetPoint" />
            <Array as="points">
              <mxPoint x="-310" y="230" />
            </Array>
          </mxGeometry>
        </mxCell>
        <mxCell id="edge_User_MergeBranches" value="" style="endArrow=classic;html=1;fontSize=18;strokeColor=#000000;" parent="1" source="User" target="MergeBranches" edge="1">
          <mxGeometry width="100" height="100" relative="1" as="geometry">
            <mxPoint x="80" y="1230" as="sourcePoint" />
            <mxPoint x="180" y="300" as="targetPoint" />
            <Array as="points">
              <mxPoint x="-190" y="380" />
            </Array>
          </mxGeometry>
        </mxCell>
        <mxCell id="edge_User_ViewHistory" value="" style="endArrow=classic;html=1;fontSize=18;strokeColor=#000000;" parent="1" source="User" target="ViewHistory" edge="1">
          <mxGeometry width="100" height="100" relative="1" as="geometry">
            <mxPoint x="80" y="1230" as="sourcePoint" />
            <mxPoint x="520" y="280" as="targetPoint" />
            <Array as="points">
              <mxPoint x="-340" y="-20" />
              <mxPoint x="450" y="90" />
              <mxPoint x="450" y="310" />
            </Array>
          </mxGeometry>
        </mxCell>
        <mxCell id="edge_User_ListBranches" value="" style="endArrow=classic;html=1;fontSize=18;strokeColor=#000000;" parent="1" source="User" target="ListBranches" edge="1">
          <mxGeometry width="100" height="100" relative="1" as="geometry">
            <mxPoint x="80" y="1230" as="sourcePoint" />
            <mxPoint x="180" y="460" as="targetPoint" />
            <Array as="points">
              <mxPoint x="-160" y="530" />
            </Array>
          </mxGeometry>
        </mxCell>
        <mxCell id="edge_User_StartRepository" value="" style="endArrow=classic;html=1;fontSize=18;strokeColor=#000000;" parent="1" source="User" target="StartRepository" edge="1">
          <mxGeometry width="100" height="100" relative="1" as="geometry">
            <mxPoint x="80" y="1230" as="sourcePoint" />
            <mxPoint x="180" y="620" as="targetPoint" />
            <Array as="points">
              <mxPoint x="-140" y="580" />
            </Array>
          </mxGeometry>
        </mxCell>
        <mxCell id="edge_User_CloneRepository" value="" style="endArrow=classic;html=1;fontSize=18;strokeColor=#000000;" parent="1" source="User" target="CloneRepository" edge="1">
          <mxGeometry width="100" height="100" relative="1" as="geometry">
            <mxPoint x="80" y="1230" as="sourcePoint" />
            <mxPoint x="180" y="780" as="targetPoint" />
            <Array as="points">
              <mxPoint x="-130" y="640" />
            </Array>
          </mxGeometry>
        </mxCell>
        <mxCell id="edge_User_LinkRemote" value="" style="endArrow=classic;html=1;fontSize=18;strokeColor=#000000;" parent="1" source="User" target="LinkRemote" edge="1">
          <mxGeometry width="100" height="100" relative="1" as="geometry">
            <mxPoint x="80" y="1230" as="sourcePoint" />
            <mxPoint x="180" y="940" as="targetPoint" />
            <Array as="points">
              <mxPoint x="-80" y="820" />
            </Array>
          </mxGeometry>
        </mxCell>
        <mxCell id="edge_User_SyncChanges" value="" style="endArrow=classic;html=1;fontSize=18;strokeColor=#000000;" parent="1" source="User" target="SyncChanges" edge="1">
          <mxGeometry width="100" height="100" relative="1" as="geometry">
            <mxPoint x="80" y="1230" as="sourcePoint" />
            <mxPoint x="180" y="1100" as="targetPoint" />
            <Array as="points">
              <mxPoint x="-320" y="1180" />
            </Array>
          </mxGeometry>
        </mxCell>
        <mxCell id="edge_User_CreateBranch" value="" style="endArrow=classic;html=1;fontSize=18;strokeColor=#000000;" parent="1" source="User" target="CreateBranch" edge="1">
          <mxGeometry width="100" height="100" relative="1" as="geometry">
            <mxPoint x="80" y="1230" as="sourcePoint" />
            <mxPoint x="180" y="1260" as="targetPoint" />
            <Array as="points">
              <mxPoint x="-390" y="1250" />
            </Array>
          </mxGeometry>
        </mxCell>
        <mxCell id="edge_User_SwitchBranch" value="" style="endArrow=classic;html=1;fontSize=18;strokeColor=#000000;" parent="1" source="User" target="SwitchBranch" edge="1">
          <mxGeometry width="100" height="100" relative="1" as="geometry">
            <mxPoint x="80" y="1230" as="sourcePoint" />
            <mxPoint x="180" y="1420" as="targetPoint" />
            <Array as="points">
              <mxPoint x="-440" y="1340" />
            </Array>
          </mxGeometry>
        </mxCell>
        <mxCell id="edge_User_DeleteBranch" value="" style="endArrow=classic;html=1;fontSize=18;strokeColor=#000000;" parent="1" source="User" target="DeleteBranch" edge="1">
          <mxGeometry width="100" height="100" relative="1" as="geometry">
            <mxPoint x="80" y="1230" as="sourcePoint" />
            <mxPoint x="180" y="1580" as="targetPoint" />
            <Array as="points">
              <mxPoint x="-490" y="1420" />
            </Array>
          </mxGeometry>
        </mxCell>
        <mxCell id="edge_User_ResetChanges" value="" style="endArrow=classic;html=1;fontSize=18;strokeColor=#000000;" parent="1" source="User" target="ResetChanges" edge="1">
          <mxGeometry width="100" height="100" relative="1" as="geometry">
            <mxPoint x="80" y="1230" as="sourcePoint" />
            <mxPoint x="180" y="1740" as="targetPoint" />
            <Array as="points">
              <mxPoint x="-540" y="1450" />
            </Array>
          </mxGeometry>
        </mxCell>
        <mxCell id="edge_User_ForkRepository" value="" style="endArrow=classic;html=1;fontSize=18;strokeColor=#000000;" parent="1" source="User" target="ForkRepository" edge="1">
          <mxGeometry width="100" height="100" relative="1" as="geometry">
            <mxPoint x="80" y="1230" as="sourcePoint" />
            <mxPoint x="180" y="1900" as="targetPoint" />
            <Array as="points">
              <mxPoint x="-580" y="1450" />
            </Array>
          </mxGeometry>
        </mxCell>
        <mxCell id="edge_User_UnlinkRemote" value="" style="endArrow=classic;html=1;fontSize=18;strokeColor=#000000;" parent="1" source="User" target="UnlinkRemote" edge="1">
          <mxGeometry width="100" height="100" relative="1" as="geometry">
            <mxPoint x="80" y="1230" as="sourcePoint" />
            <mxPoint x="180" y="2060" as="targetPoint" />
            <Array as="points">
              <mxPoint x="-630" y="1450" />
            </Array>
          </mxGeometry>
        </mxCell>
        <mxCell id="edge_User_AIAssistant" value="" style="endArrow=classic;html=1;fontSize=18;strokeColor=#000000;" parent="1" source="User" target="AIAssistant" edge="1">
          <mxGeometry width="100" height="100" relative="1" as="geometry">
            <mxPoint x="80" y="1230" as="sourcePoint" />
            <mxPoint x="860" y="600" as="targetPoint" />
            <Array as="points">
              <mxPoint x="-410" y="-240" />
              <mxPoint x="1270" y="-260" />
              <mxPoint x="1270" y="210" />
              <mxPoint x="1250" y="690" />
            </Array>
          </mxGeometry>
        </mxCell>
        <mxCell id="edge_User_Help" value="" style="endArrow=classic;html=1;fontSize=18;strokeColor=#000000;" parent="1" source="User" target="Help" edge="1">
          <mxGeometry width="100" height="100" relative="1" as="geometry">
            <mxPoint x="80" y="1230" as="sourcePoint" />
            <mxPoint x="860" y="150" as="targetPoint" />
            <Array as="points">
              <mxPoint x="-360" y="-70" />
              <mxPoint x="950" y="-70" />
            </Array>
          </mxGeometry>
        </mxCell>
        <mxCell id="edge_User_Exit" value="" style="endArrow=classic;html=1;fontSize=18;strokeColor=#000000;" parent="1" source="User" target="Exit" edge="1">
          <mxGeometry width="100" height="100" relative="1" as="geometry">
            <mxPoint x="80" y="1230" as="sourcePoint" />
            <mxPoint x="860" y="280" as="targetPoint" />
            <Array as="points">
              <mxPoint x="-380" y="-150" />
              <mxPoint x="1010" y="-170" />
            </Array>
          </mxGeometry>
        </mxCell>
        <mxCell id="edge_ConfigureSettings_ToggleGUIMode" value="" style="endArrow=classic;html=1;fontSize=18;strokeColor=#000000;" parent="1" source="ConfigureSettings" target="ToggleGUIMode" edge="1">
          <mxGeometry width="100" height="100" relative="1" as="geometry">
            <mxPoint x="520" y="150" as="sourcePoint" />
            <mxPoint x="520" y="410" as="targetPoint" />
            <Array as="points">
              <mxPoint x="760" y="360" />
            </Array>
          </mxGeometry>
        </mxCell>
        <mxCell id="edge_SetDefaultCommitMessage_SyncChanges" value="" style="endArrow=classic;html=1;fontSize=18;strokeColor=#000000;" parent="1" source="SetDefaultCommitMessage" target="SyncChanges" edge="1">
          <mxGeometry width="100" height="100" relative="1" as="geometry">
            <mxPoint x="595" y="800" as="sourcePoint" />
            <mxPoint x="105" y="1100" as="targetPoint" />
          </mxGeometry>
        </mxCell>
        <mxCell id="-dVArI_vn6dUN9_EXdXl-14" value="&lt;font style=&quot;font-size: 23px;&quot;&gt;User&lt;/font&gt;" style="text;html=1;align=center;verticalAlign=middle;whiteSpace=wrap;rounded=0;" vertex="1" parent="1">
          <mxGeometry x="-400" y="825" width="60" height="30" as="geometry" />
        </mxCell>
      </root>
    </mxGraphModel>
  </diagram>
</mxfile>
